<svg width="29" height="23" viewBox="0 0 29 23" fill="none" xmlns="http://www.w3.org/2000/svg">
<path d="M0 2.5C0 1.11929 1.11929 0 2.5 0H26.5C27.8807 0 29 1.11929 29 2.5C29 3.88071 27.8807 5 26.5 5H2.5C1.11929 5 0 3.88071 0 2.5Z" fill="currentColor"/>
<path d="M14 11.5C14 10.1193 15.1193 9 16.5 9H26.5C27.8807 9 29 10.1193 29 11.5C29 12.8807 27.8807 14 26.5 14H16.5C15.1193 14 14 12.8807 14 11.5Z" fill="currentColor"/>
<path d="M8 20.5C8 19.1193 9.11929 18 10.5 18H26.5C27.8807 18 29 19.1193 29 20.5C29 21.8807 27.8807 23 26.5 23H10.5C9.11929 23 8 21.8807 8 20.5Z" fill="currentColor"/>
</svg>
