<svg width="10" height="10" viewBox="0 0 10 10" fill="none" xmlns="http://www.w3.org/2000/svg">
<path d="M7.14286 5.36585L5.16667 3.39024C4.92064 3.14634 4.7123 2.87602 4.54167 2.57927C4.37103 2.28252 4.28571 1.95935 4.28571 1.60976C4.28571 1.1626 4.43849 0.78252 4.74405 0.469512C5.0496 0.156504 5.42064 0 5.85714 0C6.11111 0 6.34921 0.054878 6.57143 0.164634C6.79365 0.27439 6.98413 0.422764 7.14286 0.609756C7.30159 0.422764 7.49206 0.27439 7.71429 0.164634C7.93651 0.054878 8.1746 0 8.42857 0C8.86508 0 9.23611 0.156504 9.54167 0.469512C9.84722 0.78252 10 1.1626 10 1.60976C10 1.95935 9.91667 2.28252 9.75 2.57927C9.58333 2.87602 9.37698 3.14634 9.13095 3.39024L7.14286 5.36585ZM7.14286 4L8.44048 2.69512C8.59127 2.54065 8.73016 2.37602 8.85714 2.20122C8.98413 2.02642 9.04762 1.82927 9.04762 1.60976C9.04762 1.43089 8.9881 1.28049 8.86905 1.15854C8.75 1.03659 8.60318 0.97561 8.42857 0.97561C8.31746 0.97561 8.2123 0.997968 8.1131 1.04268C8.01389 1.0874 7.92857 1.15447 7.85714 1.2439L7.14286 2.12195L6.42857 1.2439C6.35714 1.15447 6.27183 1.0874 6.17262 1.04268C6.07341 0.997968 5.96825 0.97561 5.85714 0.97561C5.68254 0.97561 5.53571 1.03659 5.41667 1.15854C5.29762 1.28049 5.2381 1.43089 5.2381 1.60976C5.2381 1.82927 5.30159 2.02642 5.42857 2.20122C5.55556 2.37602 5.69444 2.54065 5.84524 2.69512L7.14286 4ZM2.85714 8.04878L6.16667 8.97561L9 8.07317C8.96032 8 8.90278 7.93699 8.82738 7.88415C8.75198 7.8313 8.66667 7.80488 8.57143 7.80488H6.16667C5.95238 7.80488 5.78175 7.79675 5.65476 7.78049C5.52778 7.76423 5.39683 7.73171 5.2619 7.68293L4.15476 7.30488L4.41667 6.35366L5.38095 6.68293C5.51587 6.72358 5.6746 6.7561 5.85714 6.78049C6.03968 6.80488 6.30952 6.82114 6.66667 6.82927C6.66667 6.73984 6.64087 6.65447 6.58929 6.57317C6.5377 6.49187 6.47619 6.43902 6.40476 6.41463L3.61905 5.36585H2.85714V8.04878ZM0 9.7561V4.39024H3.61905C3.6746 4.39024 3.73016 4.39634 3.78571 4.40854C3.84127 4.42073 3.89286 4.43496 3.94048 4.45122L6.7381 5.5122C7 5.60976 7.2123 5.78049 7.375 6.02439C7.5377 6.26829 7.61905 6.53659 7.61905 6.82927H8.57143C8.96825 6.82927 9.30556 6.96341 9.58333 7.23171C9.86111 7.5 10 7.85366 10 8.29268V8.78049L6.19048 10L2.85714 9.04878V9.7561H0ZM0.952381 8.78049H1.90476V5.36585H0.952381V8.78049Z" fill="currentColor"/>
</svg>
