<svg width="601" height="107" viewBox="0 0 601 107" fill="none" xmlns="http://www.w3.org/2000/svg">
<path d="M165.348 79.825C165.348 96.875 152.181 106.95 135.271 106.95C125.848 106.95 118.748 104.625 113.198 99.3292C111.003 97.2625 109.841 94.2917 109.841 91.45C109.841 86.9292 113.069 82.925 117.845 82.925C120.555 82.925 122.621 84.0875 124.041 85.7667C127.784 90.2875 131.786 92.0958 136.304 92.0958C141.854 92.0958 145.856 88.7375 145.856 83.7C145.856 77.6292 142.371 74.9167 130.882 68.8458C120.426 63.2917 111.003 55.8 111.003 43.1417C111.003 26.8667 124.17 17.825 139.789 17.825C148.825 17.825 156.312 20.2792 160.83 24.9292C162.766 26.8667 163.799 29.3208 163.799 31.775C163.799 36.425 160.83 40.0417 155.925 40.0417C148.567 40.0417 149.212 32.2917 139.402 32.2917C133.593 32.2917 130.237 35.9083 130.237 39.6542C130.237 44.8208 134.109 47.275 145.211 53.475C155.537 59.2875 165.348 66.3917 165.348 79.825ZM246.554 70.1375C246.554 91.45 231.064 106.95 209.636 106.95C188.337 106.95 172.847 91.45 172.847 70.1375C172.847 48.825 188.337 33.325 209.636 33.325C231.064 33.325 246.554 48.825 246.554 70.1375ZM227.32 70.1375C227.32 57.8667 220.092 48.825 209.636 48.825C199.18 48.825 191.951 57.8667 191.951 70.1375C191.951 82.5375 199.18 91.45 209.636 91.45C220.092 91.45 227.32 82.5375 227.32 70.1375ZM285.544 99.2C285.544 103.204 282.962 105.658 278.96 105.658H269.279C259.856 105.658 255.596 99.0708 255.596 89.9V9.55833C255.596 3.875 259.081 0 265.019 0C270.957 0 274.442 3.875 274.442 9.55833V89.5125C274.442 91.8375 275.346 92.7417 277.54 92.7417H278.96C282.962 92.7417 285.544 95.0667 285.544 99.2ZM364.167 70.1375C364.167 91.45 348.677 106.95 327.249 106.95C305.95 106.95 290.46 91.45 290.46 70.1375C290.46 48.825 305.95 33.325 327.249 33.325C348.677 33.325 364.167 48.825 364.167 70.1375ZM344.934 70.1375C344.934 57.8667 337.705 48.825 327.249 48.825C316.793 48.825 309.564 57.8667 309.564 70.1375C309.564 82.5375 316.793 91.45 327.249 91.45C337.705 91.45 344.934 82.5375 344.934 70.1375ZM448.594 97.1333C448.594 97.1333 448.594 97.2625 448.594 97.3917C448.594 102.946 444.98 106.175 439.688 106.175C434.266 106.175 430.91 102.817 430.781 97.5208L430.006 67.8125C430.006 67.1667 429.619 66.9083 429.232 66.9083C428.845 66.9083 428.457 67.1667 428.328 67.5542L418.26 98.8125C417.098 102.558 414.903 106.304 409.611 106.304C404.448 106.304 402.253 102.558 401.091 98.8125L391.152 67.5542C391.023 67.1667 390.636 66.9083 390.248 66.9083C389.861 66.9083 389.474 67.2958 389.474 67.8125L388.699 98.9417C388.57 103.462 385.343 106.304 380.825 106.304C380.825 106.304 380.696 106.304 380.567 106.304C376.049 106.175 373.209 103.204 373.209 98.8125C373.209 98.6833 373.209 98.5542 373.209 98.5542C373.209 98.425 373.209 98.425 373.209 98.425L375.533 46.7583C375.92 39.3958 380.696 34.2292 387.667 34.2292C395.024 34.2292 398.768 38.6208 400.962 45.5958L410.127 74.9167C410.385 75.5625 410.773 75.8208 411.16 75.8208C411.547 75.8208 411.934 75.5625 412.064 74.9167L421.229 45.5958C423.423 38.6208 427.037 34.2292 434.395 34.2292C441.366 34.2292 446.142 39.3958 446.4 46.7583L448.594 96.875C448.594 96.875 448.594 97.0042 448.594 97.1333ZM531.32 70.1375C531.32 91.45 515.83 106.95 494.402 106.95C473.103 106.95 457.613 91.45 457.613 70.1375C457.613 48.825 473.103 33.325 494.402 33.325C515.83 33.325 531.32 48.825 531.32 70.1375ZM512.087 70.1375C512.087 57.8667 504.858 48.825 494.402 48.825C483.946 48.825 476.718 57.8667 476.718 70.1375C476.718 82.5375 483.946 91.45 494.402 91.45C504.858 91.45 512.087 82.5375 512.087 70.1375ZM600.518 42.1083V95.7125C600.518 102.171 596.775 106.562 590.45 106.562C584.125 106.562 581.156 102.946 578.703 99.3292L558.049 68.2C557.662 67.8125 557.275 67.5542 557.017 67.5542C556.371 67.5542 555.984 68.0708 555.984 68.975L555.855 98.425C555.855 103.204 553.015 106.304 548.11 106.304C543.334 106.304 540.365 103.204 540.365 98.425V44.6917C540.365 38.2333 544.108 33.8417 550.563 33.8417C556.759 33.8417 559.857 37.5875 562.18 41.075L582.834 71.8167C583.092 72.2042 583.608 72.4625 583.866 72.4625C584.512 72.4625 584.899 71.9458 584.899 71.0417V42.1083C584.899 37.3292 587.868 34.2292 592.773 34.2292C597.549 34.2292 600.518 37.4583 600.518 42.1083Z" fill="url(#paint0_linear_800_88)"/>
<path d="M64.3766 68.6646C64.8232 67.338 66.2126 66.436 67.4755 66.9863C71.6574 68.8079 75.4895 71.1566 78.8341 73.9544C83.1351 77.5521 86.5477 81.8232 88.8755 86.524C90.5463 89.8978 91.6354 93.4461 92.1173 97.0614C92.4314 99.4174 90.5171 101.354 88.191 101.354H3.96024C1.63427 101.354 -0.280143 99.4174 0.0338457 97.0614C0.515654 93.4461 1.6047 89.8978 3.27545 86.524C5.60347 81.8232 9.0156 77.5521 13.3169 73.9544C16.6614 71.1566 20.4926 68.8084 24.6734 66.9863C25.9362 66.436 27.3258 67.338 27.7724 68.665C29.9367 75.0928 37.309 79.8259 46.0754 79.8259C54.842 79.8259 62.2127 75.0923 64.3766 68.6646Z" fill="url(#paint1_linear_800_88)"/>
<path d="M43.0802 20.8083C44.7252 19.1269 47.3912 19.1269 49.0358 20.8083L61.8491 33.9078L71.9444 23.5917C73.2705 22.2356 75.539 23.1959 75.539 25.1138V47.9028C75.5381 49.0915 74.5958 50.0555 73.4332 50.0555H16.5773C15.4146 50.0555 14.4719 49.0915 14.4716 47.9028V25.1138C14.4716 23.1959 16.7396 22.2356 18.0662 23.5917L29.212 34.9863L43.0802 20.8083Z" fill="url(#paint2_linear_800_88)"/>
<defs>
<linearGradient id="paint0_linear_800_88" x1="-14" y1="79.2139" x2="628" y2="43.2139" gradientUnits="userSpaceOnUse">
<stop stop-color="#C773FF"/>
<stop offset="1" stop-color="#14E757"/>
</linearGradient>
<linearGradient id="paint1_linear_800_88" x1="-14" y1="79.2139" x2="628" y2="43.2139" gradientUnits="userSpaceOnUse">
<stop stop-color="#C773FF"/>
<stop offset="1" stop-color="#14E757"/>
</linearGradient>
<linearGradient id="paint2_linear_800_88" x1="-14" y1="79.2139" x2="628" y2="43.2139" gradientUnits="userSpaceOnUse">
<stop stop-color="#C773FF"/>
<stop offset="1" stop-color="#14E757"/>
</linearGradient>
</defs>
</svg>
